<?xml version="1.0" standalone="yes"?>

<svg version="1.1" viewBox="0.0 0.0 144.0 48.0" fill="none" stroke="none" stroke-linecap="square" stroke-miterlimit="10" xmlns="http://www.w3.org/2000/svg" xmlns:xlink="http://www.w3.org/1999/xlink"><clipPath id="p.0"><path d="m0 0l144.0 0l0 48.0l-144.0 0l0 -48.0z" clip-rule="nonzero"></path></clipPath><g clip-path="url(#p.0)"><path fill="#000000" fill-opacity="0.0" d="m0 0l144.0 0l0 48.0l-144.0 0z" fill-rule="nonzero"></path><path fill="#000000" fill-opacity="0.0" d="m-14.092677 14.661375l104.566925 0l0 18.677164l-104.566925 0z" fill-rule="nonzero"></path><path fill="#e77c26" d="m9.159463 14.251207q2.796875 0 4.484375 2.015625l-1.046875 2.109375q-0.265625 0 -0.265625 -0.25q0 -0.265625 -0.0625 -0.390625q-0.515625 -0.734375 -1.359375 -1.1875q-0.84375 -0.46875 -1.84375 -0.46875q-0.828125 0 -1.4375 0.234375q-0.609375 0.234375 -1.09375 0.78125q-0.46875 0.546875 -0.71875 1.484375q-0.234375 0.921875 -0.234375 2.265625l0 1.109375l4.796875 0l0 1.828125l-4.796875 0l0 11.937498l-2.203125 0l0 -11.937498l-3.171875 0l0 -1.828125l3.171875 0l0 -1.4375q0 -1.6875 0.421875 -2.890625q0.4375 -1.203125 1.25 -1.9375q0.828125 -0.734375 1.859375 -1.078125q1.046875 -0.359375 2.25 -0.359375zm8.421905 6.84375l5.859375 0l0 12.765623l3.421875 0l0 1.859375l-9.46875 0l0 -1.859375l3.734375 0l0 -10.906248l-3.546875 0l0 -1.859375zm3.578125 -5.890625q0.484375 -0.46875 1.15625 -0.46875q0.671875 0 1.171875 0.5q0.5 0.484375 0.5 1.15625q0 0.671875 -0.5 1.15625q-0.5 0.46875 -1.171875 0.46875q-0.671875 0 -1.15625 -0.46875q-0.46875 -0.484375 -0.46875 -1.15625q0 -0.703125 0.46875 -1.1875zm22.859406 7.84375l-1.34375 2.015625q-0.171875 -0.03125 -0.171875 -0.25q0 -0.234375 -0.0625 -0.328125q-0.5625 -0.734375 -1.625 -1.359375q-1.0625 -0.625 -2.40625 -0.625q-0.609375 0 -1.171875 0.15625q-0.546875 0.140625 -0.984375 0.390625q-0.4375 0.25 -0.6875 0.65625q-0.25 0.40625 -0.25 0.90625q0 0.390625 0.1875 0.703125q0.1875 0.296875 0.609375 0.59375q0.421875 0.28125 1.171875 0.578125q0.75 0.28125 1.96875 0.625q2.75 0.734375 3.875 1.75q1.140625 1.0 1.140625 2.46875q0 0.9687481 -0.421875 1.8281231q-0.40625 0.859375 -1.21875 1.5q-0.796875 0.640625 -1.921875 1.015625q-1.109375 0.359375 -2.515625 0.359375q-3.6875 0 -6.171875 -2.296875l1.3125 -2.296873q0.09375 0.09375 0.125 0.296875q0.03125 0.203125 0.21875 0.4999981q0.203125 0.28125 0.703125 0.65625q0.515625 0.359375 1.578125 0.8125q0.46875 0.21875 1.078125 0.328125q0.609375 0.09375 1.21875 0.09375q0.640625 0 1.296875 -0.15625q0.65625 -0.171875 1.1875 -0.46875q0.53125 -0.3125 0.84375 -0.734375q0.328125 -0.4375 0.328125 -0.9843731q0 -0.828125 -0.78125 -1.40625q-0.765625 -0.578125 -2.8125 -1.1875q-1.40625 -0.40625 -1.859375 -0.578125q-1.140625 -0.4375 -1.65625 -0.765625q-0.515625 -0.34375 -0.9375 -0.8125q-0.40625 -0.46875 -0.671875 -1.0625q-0.25 -0.59375 -0.25 -1.296875q0 -0.765625 0.40625 -1.46875q0.421875 -0.703125 1.171875 -1.234375q0.765625 -0.546875 1.796875 -0.875q1.046875 -0.34375 2.265625 -0.34375q3.359375 0 5.4375 2.296875zm4.4062805 12.671873l0 -21.281248l2.6562462 0q0 0.03125 0.015625 0.03125q0.015625 0 0.015625 0.03125q0 0.09375 -0.140625 0.28125q-0.140625 0.171875 -0.203125 0.421875l0 8.484375q0.859375 -1.34375 2.15625 -2.140625q1.296875 -0.796875 2.640625 -0.796875q1.0 0 1.8125 0.34375q0.8125 0.328125 1.421875 1.0625q0.609375 0.734375 0.921875 1.890625q0.328125 1.140625 0.328125 2.8125l0 8.859373l-2.28125 0l0 -8.796873q0 -2.3125 -0.78125 -3.234375q-0.78125 -0.921875 -1.90625 -0.921875q-0.734375 0 -1.46875 0.328125q-0.734375 0.3125 -1.421875 0.890625q-0.6875 0.5625 -1.0625 1.40625q-0.359375 0.828125 -0.359375 1.90625l0 8.421873l-2.3437462 0zm15.6875305 -21.281248l2.6875 0l0 0.0625q0 0.15625 -0.1875 0.3125q-0.171875 0.140625 -0.171875 0.328125l0 8.1875q0.703125 -1.171875 1.90625 -1.875q1.203125 -0.703125 2.453125 -0.703125q1.21875 0 2.296875 0.46875q1.09375 0.453125 1.921875 1.40625q0.828125 0.9375 1.3125 2.34375q0.484375 1.40625 0.484375 3.296875q0 1.984375 -0.53125 3.4375q-0.53125 1.4531231 -1.390625 2.437498q-0.859375 0.96875 -1.953125 1.453125q-1.09375 0.484375 -2.234375 0.484375q-1.34375 0 -2.46875 -0.609375q-1.125 -0.609375 -1.859375 -1.671875l-0.796875 1.921875l-1.46875 0l0 -21.281248zm4.0 19.046873q0.609375 0.3125 1.078125 0.421875q0.484375 0.109375 0.90625 0.109375q0.640625 0 1.40625 -0.234375q0.765625 -0.234375 1.421875 -0.84375q0.65625 -0.609375 1.078125 -1.6249981q0.4375 -1.03125 0.4375 -2.609375q0 -2.90625 -1.1875 -4.4375q-1.171875 -1.53125 -3.421875 -1.53125q-0.796875 0 -1.6875 0.578125q-0.890625 0.5625 -1.3125 1.53125q-0.390625 0.953125 -0.390625 3.125q0 1.34375 0.0625 2.28125q0.078125 0.921875 0.265625 1.546875q0.1875 0.6249981 0.5 1.0156231q0.328125 0.375 0.84375 0.671875z" fill-rule="nonzero"></path><path fill="#000000" fill-opacity="0.0" d="m79.49506 24.0l32.692917 0" fill-rule="nonzero"></path><path stroke="#6fa29f" stroke-width="2.0" stroke-linejoin="round" stroke-linecap="butt" d="m79.49506 24.0l32.692917 0" fill-rule="nonzero"></path><path fill="#000000" fill-opacity="0.0" d="m79.49506 24.0l0 0c0 -9.027899 7.3185577 -16.346457 16.346458 -16.346457l0 0c4.33535 0 8.493134 1.7222109 11.558693 4.7877665c3.0655518 3.0655546 4.7877655 7.22334 4.7877655 11.55869l0 0c0 9.027897 -7.3185577 16.346458 -16.346458 16.346458l0 0c-9.027901 0 -16.346458 -7.3185616 -16.346458 -16.346458z" fill-rule="nonzero"></path><path stroke="#a59592" stroke-width="2.0" stroke-linejoin="round" stroke-linecap="butt" d="m79.49506 24.0l0 0c0 -9.027899 7.3185577 -16.346457 16.346458 -16.346457l0 0c4.33535 0 8.493134 1.7222109 11.558693 4.7877665c3.0655518 3.0655546 4.7877655 7.22334 4.7877655 11.55869l0 0c0 9.027897 -7.3185577 16.346458 -16.346458 16.346458l0 0c-9.027901 0 -16.346458 -7.3185616 -16.346458 -16.346458z" fill-rule="nonzero"></path><path fill="#000000" fill-opacity="0.0" d="m91.54886 14.661375l77.480316 0l0 18.677164l-77.480316 0z" fill-rule="nonzero"></path><path fill="#e77c26" d="m114.80461 21.094957l2.328125 0l0 0.125q0 0.203125 -0.0625 0.4375q-0.0625 0.234375 -0.0625 0.46875q0 0.125 0.03125 0.1875l2.140625 10.531248l2.5 -10.374998l1.40625 0l3.109375 10.343748q0.40625 -2.828123 0.671875 -4.640623q0.28125 -1.828125 0.421875 -3.03125q0.15625 -1.203125 0.203125 -1.984375q0.046875 -0.78125 0.046875 -1.578125l0 -0.484375l2.140625 0q-0.484375 3.71875 -1.09375 7.375q-0.59375 3.640623 -1.34375 7.281248l-2.171875 0l-2.6875 -9.468748l-2.5625 9.468748l-2.078125 0l-2.9375 -14.656248zm18.203156 -6.65625l6.46875 0l0 19.421873l4.28125 0l0 1.859375l-10.9375 0l0 -1.859375l4.3125 0l0 -17.562498l-4.125 0l0 -1.859375z" fill-rule="nonzero"></path></g></svg>

